<?xml version="1.0" standalone="no"?>
<!DOCTYPE svg PUBLIC "-//W3C//DTD SVG 20010904//EN"
 "http://www.w3.org/TR/2001/REC-SVG-20010904/DTD/svg10.dtd">
<svg version="1.0" xmlns="http://www.w3.org/2000/svg"
 width="101.000000pt" height="101.000000pt" viewBox="0 0 101.000000 101.000000"
 preserveAspectRatio="xMidYMid meet">
<metadata>
Created by potrace 1.14, written by Peter Selinger 2001-2017
</metadata>
<g transform="translate(0.000000,101.000000) scale(0.100000,-0.100000)"
fill="#000000" stroke="none">
<path d="M189 883 c-7 -47 -4 -161 4 -170 13 -17 163 -18 173 -1 11 18 12 151
1 166 -10 13 -176 18 -178 5z"/>
<path d="M577 884 c-10 -10 -9 -156 2 -172 5 -9 31 -12 92 -10 l84 3 0 90 0
90 -85 3 c-47 1 -89 0 -93 -4z"/>
<path d="M3 587 c-5 -9 3 -79 16 -122 41 -141 159 -263 308 -317 75 -27 223
-33 297 -11 117 34 226 115 288 213 34 54 68 158 68 209 l0 36 -90 0 c-53 0
-90 -4 -91 -10 -9 -112 -78 -213 -178 -258 -67 -31 -198 -31 -261 0 -97 49
-164 140 -175 238 -1 11 -3 22 -4 25 -2 9 -172 6 -178 -3z"/>
</g>
</svg>
