<svg width="20" height="16" viewBox="0 0 20 16" fill="none" xmlns="http://www.w3.org/2000/svg">
<path d="M13.0248 4.60581L13.0245 4.60622C12.7211 5.10696 12.9442 5.55458 13.0394 5.70262C13.1419 5.8624 13.4382 6.21414 13.999 6.21414H17.6917C18.7312 6.21414 19.5 6.97848 19.5 7.82459C19.5 7.94217 19.4852 8.06091 19.4558 8.1778L19.4558 8.17779L19.4544 8.18356L18.1237 13.7671C17.8189 14.762 16.7967 15.4992 15.5926 15.4992L15.5926 15.4992L9.37497 15.4997C9.37496 15.4997 9.37494 15.4997 9.37493 15.4997C7.88494 15.4997 6.74996 14.4005 6.74996 13.1426V7.16278C6.74996 6.59378 6.97833 6.03952 7.40765 5.60232C7.40767 5.6023 7.40769 5.60228 7.40771 5.60226C7.40782 5.60215 7.40793 5.60204 7.40803 5.60194L12.3916 0.540058C12.3917 0.540023 12.3917 0.539987 12.3917 0.539952C12.4192 0.512183 12.4761 0.489965 12.5394 0.504511L12.5399 0.504644L13.4579 0.714463L13.4582 0.714541C13.8918 0.813315 14.2205 1.07849 14.3834 1.42217L14.3835 1.42236C14.5445 1.76191 14.5256 2.13558 14.3269 2.46202L14.3267 2.46242L13.0248 4.60581ZM0.5 14.8572V5.7144C0.5 5.40058 0.792636 5.07156 1.25 5.07156H4.50002V15.5H1.25C0.792657 15.5 0.5 15.1709 0.5 14.8572Z" stroke="#AEAEAE"/>
</svg>
