<svg width="281" height="309" viewBox="0 0 281 309" fill="none" xmlns="http://www.w3.org/2000/svg">
<path d="M256.359 97.8282L258.365 110.183L259.798 113.631L258.365 117.654L260.944 120.527L264.097 119.377L265.53 112.769L268.109 111.907L270.689 114.78L269.256 119.377L275.274 125.699V131.158V136.904L274.128 142.938L275.274 148.397L271.835 150.121L270.115 155.868L271.835 157.879L268.109 162.189V164.775L271.548 169.372V176.555L274.128 179.715L270.115 186.037V190.059H267.249L266.39 188.335L264.097 190.059L267.249 194.656L266.39 196.38L270.115 200.116V205.862L272.981 211.896L276.421 212.758L277.567 215.344L272.981 221.377L274.414 225.687L271.835 228.561V229.997L276.421 235.456V244.076L279 249.535L274.414 253.27L275.274 257.293L272.981 259.304L267.249 254.707V260.741L266.39 266.2H263.237L261.231 262.177V254.707L256.072 253.27L255.499 256.718L258.078 262.177L258.938 267.062L261.231 270.797L256.932 275.394L258.078 280.853L255.499 286.025L249.48 283.439L247.761 274.532L243.462 270.797L242.315 279.417L236.87 286.025L238.876 288.324L238.016 291.197L240.023 293.208L236.87 298.093L238.016 300.392L237.443 301.254L235.724 300.392L234.004 302.116L233.144 304.127V306.425L231.998 307L230.565 306.138L231.138 302.69L227.699 300.104L225.406 298.955L221.68 301.541L218.528 300.392L216.522 302.116L210.503 298.955L208.21 298.38L207.924 296.656V294.07L203.625 292.921L200.186 292.346L197.606 291.197L195.887 293.208H194.167V296.082H191.301L190.441 298.955L187.575 297.231L185.856 298.955L183.276 300.392V296.656L180.983 294.932L179.837 293.208L179.264 296.082H176.971L175.825 292.346H174.392L168.946 296.082L166.367 296.656L163.788 293.208L161.781 292.346H159.775L158.056 287.749L156.049 283.152L156.909 280.853V278.268L153.184 277.406L150.604 274.532L144.586 272.521H141.433L140.86 266.775H133.981L131.115 269.361C128.249 268.69 122.46 267.407 122.231 267.637C122.002 267.866 119.078 268.499 117.645 268.786L113.346 267.637L109.907 263.901L104.175 264.763L101.023 269.361L97.5835 270.51L95.5773 271.946L90.9917 269.361H86.6928L81.8206 273.958L70.6433 278.268L60.0392 273.958L56.8866 271.946L54.3072 268.211L49.1484 260.741H41.6969L37.3979 261.89L31.0928 259.592L24.501 262.465L18.4825 263.039L11.8907 263.901V255.282L14.1835 243.214L13.0371 236.893L13.6103 233.732L13.0371 229.997L10.1711 224.538L7.01856 219.079V212.183L10.7443 206.724L13.6103 200.977L15.6165 188.623L18.1959 186.037V181.727L20.7753 179.141L19.6289 176.268L21.635 171.67L22.2082 166.211L20.7753 159.603L15.6165 156.73L10.7443 152.707L7.30515 145.237L3.57938 137.479L1 134.606V128.285L3.57938 127.135L2.14639 119.952L3.57938 117.654L4.72577 115.355H9.88454L16.7629 110.758V103.862L18.1959 100.989V98.4028L26.5072 94.3803L28.8 96.3916L34.2454 94.3803L36.8247 96.9662L46.8557 90.6451L50.868 91.507L51.7278 92.369L61.7588 90.6451L68.0639 87.7718L70.6433 81.1634L75.2289 75.7042L83.5402 69.3831L89.8454 65.3606L95.0041 51.8563L94.1443 38.9268L98.1567 32.6056L100.449 26.8592V22.262V19.9634H104.748L111.627 11.3437L112.487 7.32113H115.639L120.225 1.86197L123.091 3.58592L126.243 1H127.963L129.396 2.72394H135.128L135.701 19.9634L148.311 32.031L156.623 30.5944L161.495 38.9268H166.367L170.093 41.5127L172.672 42.0873V43.8113H174.965L177.258 46.9718L178.404 55.0169L180.41 59.0394H182.13L184.423 56.1662L184.709 54.7296H193.021L197.893 57.6028H203.338L220.247 64.7859L222.54 62.4873V60.4761L234.004 56.1662L235.724 52.431L238.59 48.4085H240.882L241.742 54.1549L250.627 59.6141L250.054 62.4873V67.6592L252.633 72.5437L255.212 76.2789V79.1521L258.365 83.462V88.3465L260.944 91.2197L256.359 97.8282Z" fill="#AEAEAE"/>
<path d="M218.241 124.262L209.93 125.699L205.918 159.315L213.656 168.797L236.87 146.961H239.163L244.608 144.949L248.907 134.893L247.761 119.377L241.742 116.217L218.241 124.262Z" fill="#00E8D8"/>
<path d="M250.054 62.4873L241.742 64.2113L233.144 76.2789L220.821 86.3352L216.808 92.9437L207.924 97.8282L211.936 110.183L211.156 116.217M250.054 62.4873V67.6592L252.633 72.5437L255.212 76.2789V79.1521L258.365 83.462V88.3465L260.944 91.2197L256.359 97.8282L258.365 110.183M250.054 62.4873L250.627 59.6141L241.742 54.1549L240.882 48.4085H238.59L235.724 52.431L234.004 56.1662L222.54 60.4761V62.4873L220.247 64.7859L203.338 57.6028H197.893L193.021 54.7296H184.709L184.423 56.1662L182.13 59.0394H180.41L178.404 55.0169L177.258 46.9718L174.965 43.8113H172.672V42.0873L170.093 41.5127L166.367 38.9268H161.495L156.623 30.5944L148.311 32.031L135.701 19.9634L135.128 2.72394H129.396L127.963 1H126.243L123.091 3.58592L120.225 1.86197L115.639 7.32113H112.487L111.627 11.3437L104.748 19.9634H100.449V22.262V26.8592L98.1567 32.6056L94.1443 38.9268L95.0041 51.8563L89.8454 65.3606L83.5402 69.3831L75.2289 75.7042L70.6433 81.1634L68.0639 87.7718L61.7588 90.6451L51.7278 92.369L50.868 91.507L46.8557 90.6451L36.8247 96.9662L34.2454 94.3803L28.8 96.3916L26.5072 94.3803L18.1959 98.4028V100.989L16.7629 103.862V110.758L9.88454 115.355H4.72577L3.57938 117.654L2.14639 119.952L3.57938 127.135L1 128.285V134.606L3.57938 137.479L7.30515 145.237L10.7443 152.707L15.6165 156.73L20.7753 159.603M209.93 125.699L218.241 124.262L241.742 116.217L247.761 119.377M209.93 125.699L205.918 159.315M209.93 125.699L211.156 116.217M247.761 119.377L250.054 116.217H252.633L253.779 112.769L258.365 110.183M247.761 119.377L248.907 134.893L244.608 144.949L239.163 146.961H236.87L213.656 168.797M258.365 110.183L259.798 113.631L258.365 117.654L260.944 120.527L264.097 119.377L265.53 112.769L268.109 111.907L270.689 114.78L269.256 119.377L275.274 125.699V131.158V136.904L274.128 142.938L275.274 148.397L271.835 150.121L270.115 155.868L271.835 157.879L268.109 162.189V164.775L271.548 169.372V176.555L274.128 179.715L270.115 186.037V190.059H267.249L266.39 188.335L264.097 190.059L267.249 194.656L266.39 196.38L270.115 200.116V205.862L272.981 211.896L276.421 212.758L277.567 215.344L272.981 221.377L274.414 225.687L271.835 228.561V229.997L276.421 235.456V244.076L279 249.535L274.414 253.27L275.274 257.293L272.981 259.304L267.249 254.707V260.741L266.39 266.2H263.237L261.231 262.177V254.707L256.072 253.27L255.499 256.718L258.078 262.177L258.938 267.062L261.231 270.797L256.932 275.394L258.078 280.853L255.499 286.025L249.48 283.439L247.761 274.532L243.462 270.797L242.315 279.417L236.87 286.025L238.876 288.324L238.016 291.197L240.023 293.208L236.87 298.093L238.016 300.392L237.443 301.254L235.724 300.392L234.004 302.116L233.144 304.127V306.425L231.998 307L230.565 306.138L231.138 302.69L227.699 300.104L225.406 298.955L221.68 301.541L218.528 300.392L216.522 302.116L210.503 298.955L208.21 298.38L207.924 296.656V294.07L203.625 292.921M205.918 159.315L213.656 168.797M205.918 159.315L188.435 154.144L180.983 175.98L179.55 170.234L168.087 172.532L167.227 171.383H160.922L158.342 173.107H153.757L152.61 175.98L156.623 177.992L156.049 180.865L152.61 182.301L148.885 181.727H144.012L143.439 183.738L140.573 182.876L136.847 180.865L133.122 179.428L129.682 178.854L128.536 180.865L125.67 184.887L122.231 187.186L121.658 190.346L118.505 193.22H115.926L111.34 196.38C110.576 197.913 108.933 200.977 108.474 200.977C108.016 200.977 105.799 202.893 104.748 203.851L102.456 206.724L99.3031 209.884H95.0041L91.8515 211.034L86.9794 212.758L84.9732 216.493L82.1072 219.079H71.2165H60.3258H53.734L45.1361 212.183L38.5443 208.161H31.9526L25.0742 203.851L21.635 203.276L13.6103 200.977M213.656 168.797L218.528 176.555L221.68 182.876L226.553 187.186L225.406 190.059L230.565 209.023V249.535H223.687H216.522L218.241 256.718L205.918 257.293V264.763L207.924 275.394L203.625 292.921M203.625 292.921L200.186 292.346L197.606 291.197L195.887 293.208H194.167V296.082H191.301L190.441 298.955L187.575 297.231L185.856 298.955L183.276 300.392V296.656L180.983 294.932L179.837 293.208L179.264 296.082H176.971L175.825 292.346H174.392L168.946 296.082L166.367 296.656L163.788 293.208L161.781 292.346H159.775L158.056 287.749L156.049 283.152L156.909 280.853V278.268L153.183 277.406L150.604 274.532L144.586 272.521H141.433L140.86 266.775H133.981L131.115 269.361C128.249 268.69 122.46 267.407 122.231 267.637C122.002 267.866 119.078 268.499 117.645 268.786L113.346 267.637L109.907 263.901L104.175 264.763L101.023 269.361L97.5835 270.51L95.5773 271.946L90.9917 269.361H86.6928L81.8206 273.958L70.6433 278.268L60.0392 273.958L56.8866 271.946L54.3072 268.211L49.1484 260.741H41.6969L37.3979 261.89L31.0928 259.592L24.501 262.465L18.4825 263.039L11.8907 263.901V255.282L14.1835 243.214L13.0371 236.893L13.6103 233.732L13.0371 229.997L10.1711 224.538L7.01856 219.079V212.183L10.7443 206.724L13.6103 200.977M13.6103 200.977L15.6165 188.623L18.1959 186.037V181.727L20.7753 179.141L19.6289 176.268L21.635 171.67L22.2082 166.211L20.7753 159.603M211.156 116.217C208.55 116.504 203.281 117.194 203.052 117.654C202.822 118.113 197.797 118.42 195.313 118.515L188.435 122.538L185.282 119.377L182.416 120.527L177.258 117.654L178.118 114.206L174.392 113.631L171.526 114.206L168.946 112.769H156.336L151.751 110.183H143.726L141.433 107.023L138.567 105.299L136.847 105.873V103.862H134.268L135.414 100.989L132.835 100.127L129.109 102.138L127.676 99.2648L129.969 97.2535L125.957 95.5296L121.371 97.2535L119.078 100.989L113.633 102.713H110.48V111.332L104.462 112.769L101.023 111.332L99.3031 109.608L94.1443 109.034L91.5649 110.758L86.1196 114.78L79.2412 113.918L75.2289 115.355L70.6433 116.504L65.7711 113.344L61.7588 112.769L57.7464 118.228L54.0206 119.377L46.2825 127.135L46.8557 130.296L42.8433 133.169L41.4103 136.617V140.639L37.9711 145.237L34.8186 151.845L23.068 153.282L20.7753 159.603" stroke="white" stroke-width="2" stroke-linecap="round"/>
</svg>
