<svg width="32" height="32" viewBox="0 0 32 32" fill="none" xmlns="http://www.w3.org/2000/svg">
<path d="M27.5045 21.3319C27.4008 21.2069 27.2989 21.0819 27.1989 20.9613C25.8239 19.2981 24.992 18.2944 24.992 13.5863C24.992 11.1488 24.4089 9.14875 23.2595 7.64875C22.412 6.54062 21.2664 5.7 19.7564 5.07875C19.737 5.06794 19.7196 5.05376 19.7052 5.03687C19.162 3.21812 17.6758 2 15.9995 2C14.3233 2 12.8377 3.21812 12.2945 5.035C12.28 5.05127 12.2629 5.065 12.2439 5.07562C8.72016 6.52625 7.00766 9.30938 7.00766 13.5844C7.00766 18.2944 6.17703 19.2981 4.80078 20.9594C4.70078 21.08 4.59891 21.2025 4.49516 21.33C4.22716 21.6532 4.05736 22.0464 4.00586 22.4631C3.95435 22.8798 4.0233 23.3025 4.20453 23.6812C4.59016 24.4937 5.41203 24.9981 6.35016 24.9981H25.6558C26.5895 24.9981 27.4058 24.4944 27.7927 23.6856C27.9747 23.3068 28.0443 22.8837 27.9932 22.4666C27.9421 22.0494 27.7725 21.6556 27.5045 21.3319V21.3319Z" fill="#E5E5E5"/>
<path d="M16.0002 30C16.9034 29.9993 17.7895 29.7541 18.5646 29.2905C19.3397 28.8269 19.9748 28.1622 20.4027 27.3669C20.4229 27.3288 20.4328 27.2861 20.4316 27.243C20.4304 27.1999 20.4181 27.1578 20.3958 27.1209C20.3735 27.084 20.3421 27.0534 20.3045 27.0323C20.267 27.0111 20.2246 27 20.1815 27H11.8202C11.777 26.9998 11.7346 27.0109 11.6969 27.032C11.6593 27.0532 11.6278 27.0837 11.6054 27.1206C11.5831 27.1576 11.5707 27.1997 11.5694 27.2428C11.5682 27.286 11.5782 27.3287 11.5983 27.3669C12.0262 28.1621 12.6612 28.8268 13.4362 29.2904C14.2112 29.7539 15.0972 29.9992 16.0002 30Z" fill="#E5E5E5"/>
</svg>
