<svg width="213" height="215" viewBox="0 0 213 215" fill="none" xmlns="http://www.w3.org/2000/svg">
<rect x="1" y="214" width="214" height="212" transform="rotate(-90 1 214)" fill="#FF7337"/>
<rect width="55" height="54" fill="#00E8D8"/>
<path fill-rule="evenodd" clip-rule="evenodd" d="M34.2014 161H20.9208V171.53L11.0517 161.661L1.66093 171.052L11.53 180.921H1.00002L1.00001 194.201H12.3888L1.66091 204.929L11.0517 214.32L20.9208 204.451V214.122H34.2014V203.592L44.9292 214.32L54.32 204.929L43.5922 194.201H54.1223V180.921H44.4509L54.32 171.052L44.9292 161.661L34.2014 172.389V161Z" fill="#00E8D8"/>
<path fill-rule="evenodd" clip-rule="evenodd" d="M87.2014 111H73.9208V121.53L64.0517 111.661L54.6609 121.052L64.53 130.921H54L54 144.201H65.3888L54.6609 154.929L64.0517 164.32L73.9208 154.451V164.122H87.2014V153.592L97.9292 164.32L107.32 154.929L96.5922 144.201H107.122V130.921H97.4509L107.32 121.052L97.9292 111.661L87.2014 122.389V111Z" fill="#03256C"/>
<path fill-rule="evenodd" clip-rule="evenodd" d="M140.201 61H126.921V71.53L117.052 61.6609L107.661 71.0517L117.53 80.9208H107L107 94.2013H118.389L107.661 104.929L117.052 114.32L126.921 104.451V114.122H140.201V103.592L150.929 114.32L160.32 104.929L149.592 94.2013H160.122V80.9208H150.451L160.32 71.0517L150.929 61.661L140.201 72.3887V61Z" fill="#00E8D8"/>
</svg>
