<svg width="213" height="213" viewBox="0 0 213 213" fill="none" xmlns="http://www.w3.org/2000/svg">
<rect width="213" height="213" fill="#FF7337"/>
<rect x="55" y="106" width="104" height="107" fill="white"/>
<path d="M106.738 159.73L106.738 106.74L53.748 159.73L106.738 159.73Z" fill="#00E8D8"/>
<path d="M106.736 159.73L106.736 106.74L159.727 159.73L106.736 159.73Z" fill="#00E8D8"/>
<path d="M106.738 212.721L106.738 159.73L53.748 212.721L106.738 212.721Z" fill="#00E8D8"/>
<path d="M106.736 212.721L106.736 159.73L159.727 212.721L106.736 212.721Z" fill="#00E8D8"/>
<path d="M106.5 1.24615e-06C48.7862 1.93438e-06 2 47.9055 2 107L211 107C211 47.9055 164.214 5.5792e-07 106.5 1.24615e-06Z" fill="#03256C"/>
</svg>
