<svg width="24" height="24" viewBox="0 0 24 24" fill="none" xmlns="http://www.w3.org/2000/svg">
<path d="M9.5 15.04V18.96C9.5 19.0009 9.49994 19.0098 9.49975 19.0157C9.49146 19.2795 9.27953 19.4915 9.01571 19.4998C9.00983 19.4999 9.00094 19.5 8.96 19.5H6.04C5.99906 19.5 5.99017 19.4999 5.98429 19.4998C5.72047 19.4915 5.50854 19.2795 5.50025 19.0157C5.50006 19.0098 5.5 19.0009 5.5 18.96V12.832C5.5 12.0963 4.90366 11.5 4.16804 11.5C3.86381 11.5 3.71984 11.1248 3.94598 10.9213L11.6388 3.9978C11.6664 3.97292 11.6724 3.96763 11.6766 3.96407C11.8631 3.80579 12.1369 3.80579 12.3234 3.96407C12.3276 3.96763 12.3336 3.97292 12.3612 3.9978L20.054 10.9213C20.2802 11.1248 20.1362 11.5 19.832 11.5C19.0963 11.5 18.5 12.0963 18.5 12.832V18.96C18.5 18.977 18.5 18.9885 18.5 18.9966C18.4999 19.0078 18.4999 19.0123 18.4998 19.0157C18.4915 19.2795 18.2795 19.4915 18.0157 19.4998C18.0129 19.4998 18.0095 19.4999 18.0023 19.4999C17.9943 19.5 17.9816 19.5 17.96 19.5H15.04C14.9991 19.5 14.9902 19.4999 14.9843 19.4998C14.7205 19.4915 14.5085 19.2795 14.5002 19.0157C14.5002 19.0134 14.5001 19.0107 14.5001 19.0059C14.5 18.9982 14.5 18.9851 14.5 18.96V15.04C14.5 15.0067 14.5001 14.9784 14.4993 14.9529C14.4744 14.1614 13.8386 13.5256 13.0471 13.5007C13.0233 13.5 12.9971 13.5 12.9667 13.5H12.96H11.04H11.0333C11.0029 13.5 10.9767 13.5 10.9529 13.5007C10.1614 13.5256 9.52561 14.1614 9.50074 14.9529C9.49994 14.9784 9.5 15.0067 9.5 15.04Z" stroke="#AEAEAE"/>
</svg>
