<svg width="282" height="309" viewBox="0 0 282 309" fill="none" xmlns="http://www.w3.org/2000/svg">
<path d="M257.277 97.8282L259.291 110.183L260.729 113.631L259.291 117.654L261.879 120.527L265.043 119.377L266.481 112.769L269.07 111.907L271.659 114.78L270.221 119.377L276.261 125.699V131.158V136.904L275.11 142.938L276.261 148.397L272.809 150.121L271.083 155.868L272.809 157.879L269.07 162.189V164.775L272.522 169.372V176.555L275.11 179.715L271.083 186.037V190.059H268.207L267.344 188.335L265.043 190.059L268.207 194.656L267.344 196.38L271.083 200.116V205.862L273.96 211.896L277.411 212.758L278.562 215.344L273.96 221.377L275.398 225.687L272.809 228.561V229.997L277.411 235.456V244.076L280 249.535L275.398 253.27L276.261 257.293L273.96 259.304L268.207 254.707V260.741L267.344 266.2H264.18L262.167 262.177V254.707L256.99 253.27L256.414 256.718L259.003 262.177L259.866 267.062L262.167 270.797L257.853 275.394L259.003 280.853L256.414 286.025L250.374 283.439L248.648 274.532L244.334 270.797L243.183 279.417L237.719 286.025L239.732 288.324L238.869 291.197L240.882 293.208L237.719 298.093L238.869 300.392L238.294 301.254L236.568 300.392L234.842 302.116L233.979 304.127V306.425L232.829 307L231.391 306.138L231.966 302.69L228.514 300.104L226.213 298.955L222.474 301.541L219.31 300.392L217.297 302.116L211.257 298.955L208.956 298.38L208.668 296.656V294.07L204.354 292.921L200.902 292.346L198.313 291.197L196.588 293.208H194.862V296.082H191.986L191.123 298.955L188.246 297.231L186.521 298.955L183.932 300.392V296.656L181.631 294.932L180.48 293.208L179.905 296.082H177.604L176.454 292.346H175.015L169.55 296.082L166.962 296.656L164.373 293.208L162.36 292.346H160.346L158.621 287.749L156.607 283.152L157.47 280.853V278.268L153.731 277.406L151.142 274.532L145.102 272.521H141.938L141.363 266.775H134.46L131.583 269.361C128.707 268.69 122.897 267.407 122.667 267.637C122.437 267.866 119.503 268.499 118.065 268.786L113.751 267.637L110.299 263.901L104.546 264.763L101.382 269.361L97.9309 270.51L95.9175 271.946L91.3155 269.361H87.001L82.1113 273.958L70.8938 278.268L60.2515 273.958L57.0876 271.946L54.499 268.211L49.3216 260.741H41.8433L37.5289 261.89L31.201 259.592L24.5856 262.465L18.5454 263.039L11.9299 263.901V255.282L14.2309 243.214L13.0804 236.893L13.6557 233.732L13.0804 229.997L10.2041 224.538L7.04021 219.079V212.183L10.7794 206.724L13.6557 200.977L15.6691 188.623L18.2577 186.037V181.727L20.8464 179.141L19.6959 176.268L21.7093 171.67L22.2845 166.211L20.8464 159.603L15.6691 156.73L10.7794 152.707L7.32783 145.237L3.58866 137.479L1 134.606V128.285L3.58866 127.135L2.15052 119.952L3.58866 117.654L4.73918 115.355H9.91649L16.8196 110.758V103.862L18.2577 100.989V98.4028L26.599 94.3803L28.9 96.3916L34.3649 94.3803L36.9536 96.9662L47.0206 90.6451L51.0474 91.507L51.9103 92.369L61.9773 90.6451L68.3052 87.7718L70.8938 81.1634L75.4959 75.7042L83.8371 69.3831L90.1649 65.3606L95.3423 51.8563L94.4794 38.9268L98.5062 32.6056L100.807 26.8592V22.262V19.9634H105.122L112.025 11.3437L112.888 7.32113H116.052L120.654 1.86197L123.53 3.58592L126.694 1H128.42L129.858 2.72394H135.61L136.186 19.9634L148.841 32.031L157.182 30.5944L162.072 38.9268H166.962L170.701 41.5127L173.29 42.0873V43.8113H175.591L177.892 46.9718L179.042 55.0169L181.056 59.0394H182.781L185.082 56.1662L185.37 54.7296H193.711L198.601 57.6028H204.066L221.036 64.7859L223.337 62.4873V60.4761L234.842 56.1662L236.568 52.431L239.444 48.4085H241.745L242.608 54.1549L251.525 59.6141L250.949 62.4873V67.6592L253.538 72.5437L256.127 76.2789V79.1521L259.291 83.462V88.3465L261.879 91.2197L257.277 97.8282Z" fill="#AEAEAE"/>
<path d="M250.949 62.4873L242.608 64.2113L233.979 76.2789L221.611 86.3352L217.585 92.9437L208.668 97.8282L212.695 110.183L211.912 116.217M250.949 62.4873V67.6592L253.538 72.5437L256.127 76.2789V79.1521L259.291 83.462V88.3465L261.879 91.2197L257.277 97.8282L259.291 110.183M250.949 62.4873L251.525 59.6141L242.608 54.1549L241.745 48.4085H239.444L236.568 52.431L234.842 56.1662L223.337 60.4761V62.4873L221.036 64.7859L204.066 57.6028H198.601L193.711 54.7296H185.37L185.082 56.1662L182.781 59.0394H181.056L179.042 55.0169L177.892 46.9718L175.591 43.8113H173.29V42.0873L170.701 41.5127L166.962 38.9268H162.072L157.182 30.5944L148.841 32.031L136.186 19.9634L135.61 2.72394H129.858L128.42 1H126.694L123.53 3.58592L120.654 1.86197L116.052 7.32113H112.888L112.025 11.3437L105.122 19.9634H100.807V22.262V26.8592L98.5062 32.6056L94.4794 38.9268L95.3423 51.8563L90.1649 65.3606L83.8371 69.3831L75.4959 75.7042L70.8938 81.1634L68.3052 87.7718L61.9773 90.6451L51.9103 92.369L51.0474 91.507L47.0206 90.6451L36.9536 96.9662L34.3649 94.3803L28.9 96.3916L26.599 94.3803L18.2577 98.4028V100.989L16.8196 103.862V110.758L9.91649 115.355H4.73918L3.58866 117.654L2.15052 119.952L3.58866 127.135L1 128.285V134.606L3.58866 137.479L7.32783 145.237L10.7794 152.707L15.6691 156.73L20.8464 159.603M210.681 125.699L219.023 124.262L242.608 116.217L248.648 119.377M210.681 125.699L206.655 159.315M210.681 125.699L211.912 116.217M248.648 119.377L250.949 116.217H253.538L254.689 112.769L259.291 110.183M248.648 119.377L249.799 134.893L245.485 144.949L240.02 146.961H237.719L214.421 168.797M259.291 110.183L260.729 113.631L259.291 117.654L261.879 120.527L265.043 119.377L266.481 112.769L269.07 111.907L271.659 114.78L270.221 119.377L276.261 125.699V131.158V136.904L275.11 142.938L276.261 148.397L272.809 150.121L271.083 155.868L272.809 157.879L269.07 162.189V164.775L272.522 169.372V176.555L275.11 179.715L271.083 186.037V190.059H268.207L267.344 188.335L265.043 190.059L268.207 194.656L267.344 196.38L271.083 200.116V205.862L273.96 211.896L277.411 212.758L278.562 215.344L273.96 221.377L275.398 225.687L272.809 228.561V229.997L277.411 235.456V244.076L280 249.535L275.398 253.27L276.261 257.293L273.96 259.304L268.207 254.707V260.741L267.344 266.2H264.18L262.167 262.177V254.707L256.99 253.27L256.414 256.718L259.003 262.177L259.866 267.062L262.167 270.797L257.853 275.394L259.003 280.853L256.414 286.025L250.374 283.439L248.648 274.532L244.334 270.797L243.183 279.417L237.719 286.025L239.732 288.324L238.869 291.197L240.882 293.208L237.719 298.093L238.869 300.392L238.294 301.254L236.568 300.392L234.842 302.116L233.979 304.127V306.425L232.829 307L231.391 306.138L231.966 302.69L228.514 300.104L226.213 298.955L222.474 301.541L219.31 300.392L217.297 302.116L211.257 298.955L208.956 298.38L208.668 296.656V294.07L204.354 292.921M206.655 159.315L214.421 168.797M206.655 159.315L189.109 154.144L181.631 175.98L180.193 170.234L168.688 172.532L167.825 171.383H161.497L158.908 173.107H154.306L153.156 175.98L157.182 177.992L156.607 180.865L153.156 182.301L149.416 181.727H144.527L143.952 183.738L141.075 182.876L137.336 180.865L133.597 179.428L130.145 178.854L128.995 180.865L126.119 184.887L122.667 187.186L122.092 190.346L118.928 193.22H116.339L111.737 196.38C110.97 197.913 109.321 200.977 108.861 200.977C108.401 200.977 106.176 202.893 105.122 203.851L102.821 206.724L99.6567 209.884H95.3423L92.1783 211.034L87.2887 212.758L85.2752 216.493L82.399 219.079H71.4691H60.5392H53.9237L45.2948 212.183L38.6794 208.161H32.0639L25.1608 203.851L21.7093 203.276L13.6557 200.977M214.421 168.797L219.31 176.555L222.474 182.876L227.364 187.186L226.213 190.059L231.391 209.023V249.535H224.488H217.297L219.023 256.718L206.655 257.293V264.763L208.668 275.394L204.354 292.921M204.354 292.921L200.902 292.346L198.313 291.197L196.588 293.208H194.862V296.082H191.986L191.123 298.955L188.246 297.231L186.521 298.955L183.932 300.392V296.656L181.631 294.932L180.48 293.208L179.905 296.082H177.604L176.454 292.346H175.015L169.55 296.082L166.962 296.656L164.373 293.208L162.36 292.346H160.346L158.621 287.749L156.607 283.152L157.47 280.853V278.268L153.731 277.406L151.142 274.532L145.102 272.521H141.938L141.363 266.775H134.46L131.583 269.361C128.707 268.69 122.897 267.407 122.667 267.637C122.437 267.866 119.503 268.499 118.065 268.786L113.751 267.637L110.299 263.901L104.546 264.763L101.382 269.361L97.9309 270.51L95.9175 271.946L91.3155 269.361H87.001L82.1113 273.958L70.8938 278.268L60.2515 273.958L57.0876 271.946L54.499 268.211L49.3216 260.741H41.8433L37.5289 261.89L31.201 259.592L24.5856 262.465L18.5454 263.039L11.9299 263.901V255.282L14.2309 243.214L13.0804 236.893L13.6557 233.732L13.0804 229.997L10.2041 224.538L7.04021 219.079V212.183L10.7794 206.724L13.6557 200.977M13.6557 200.977L15.6691 188.623L18.2577 186.037V181.727L20.8464 179.141L19.6959 176.268L21.7093 171.67L22.2845 166.211L20.8464 159.603M211.912 116.217C209.297 116.504 204.008 117.194 203.778 117.654C203.548 118.113 198.505 118.42 196.012 118.515L189.109 122.538L185.945 119.377L183.069 120.527L177.892 117.654L178.755 114.206L175.015 113.631L172.139 114.206L169.55 112.769H156.895L152.293 110.183H144.239L141.938 107.023L139.062 105.299L137.336 105.873V103.862H134.747L135.898 100.989L133.309 100.127L129.57 102.138L128.132 99.2648L130.433 97.2535L126.406 95.5296L121.804 97.2535L119.503 100.989L114.038 102.713H110.874V111.332L104.834 112.769L101.382 111.332L99.6567 109.608L94.4794 109.034L91.8907 110.758L86.4258 114.78L79.5227 113.918L75.4959 115.355L70.8938 116.504L66.0041 113.344L61.9773 112.769L57.9505 118.228L54.2113 119.377L46.4454 127.135L47.0206 130.296L42.9938 133.169L41.5557 136.617V140.639L38.1041 145.237L34.9402 151.845L23.1474 153.282L20.8464 159.603" stroke="white" stroke-width="2" stroke-linecap="round"/>
</svg>
