<svg width="31" height="30" viewBox="0 0 31 30" fill="none" xmlns="http://www.w3.org/2000/svg">
<path d="M3.00488 23.9032H6.00488V30L13.6564 23.9032H21.0049C22.6594 23.9032 24.0049 22.5631 24.0049 20.9153V8.9637C24.0049 7.31587 22.6594 5.9758 21.0049 5.9758H3.00488C1.35038 5.9758 0.00488281 7.31587 0.00488281 8.9637V20.9153C0.00488281 22.5631 1.35038 23.9032 3.00488 23.9032Z" fill="#00E8D8"/>
<path d="M27.0049 0H9.00488C7.35038 0 6.00488 1.34007 6.00488 2.9879H24.0049C25.6594 2.9879 27.0049 4.32797 27.0049 5.9758V17.9274C28.6594 17.9274 30.0049 16.5873 30.0049 14.9395V2.9879C30.0049 1.34007 28.6594 0 27.0049 0Z" fill="#00E8D8"/>
</svg>
