<svg width="31" height="30" viewBox="0 0 31 30" fill="none" xmlns="http://www.w3.org/2000/svg">
<path d="M0.00488281 10.7145V27.8572C0.00488281 29.0405 0.84431 30 1.87989 30H7.50491V8.57167H1.87989C0.84431 8.57167 0.00488281 9.531 0.00488281 10.7145Z" fill="#00E8D8"/>
<path d="M26.5424 10.714H21.0034C20.5191 10.714 20.2765 10.3447 20.195 10.1856C20.1135 10.0276 19.9487 9.60598 20.1831 9.12258L22.1359 5.10372C22.5644 4.22378 22.6083 3.18898 22.2577 2.26509C21.907 1.34016 21.2149 0.669476 20.3589 0.425688L18.9819 0.0322764C18.6468 -0.0639837 18.2916 0.0584342 18.0581 0.354539L10.5819 9.84662C9.80646 10.8333 9.37983 12.1056 9.37983 13.4302V24.6424C9.37983 27.5961 11.4828 29.9995 14.0673 29.9995L23.3938 29.9984C25.4996 29.9984 27.359 28.3777 27.9147 26.0581L29.9161 15.5615C29.9747 15.2696 30.0049 14.9704 30.0049 14.6711C30.0049 12.4896 28.4512 10.714 26.5424 10.714Z" fill="#00E8D8"/>
</svg>
