<svg width="32" height="33" viewBox="0 0 32 33" fill="none" xmlns="http://www.w3.org/2000/svg">
<path d="M27.5045 21.3538C27.4008 21.2288 27.2989 21.1038 27.1989 20.9832C25.8239 19.3201 24.992 18.3163 24.992 13.6082C24.992 11.1707 24.4089 9.17072 23.2595 7.67072C22.412 6.5626 21.2664 5.72197 19.7564 5.10072C19.737 5.08991 19.7196 5.07573 19.7052 5.05885C19.162 3.2401 17.6758 2.02197 15.9995 2.02197C14.3233 2.02197 12.8377 3.2401 12.2945 5.05697C12.28 5.07324 12.2629 5.08697 12.2439 5.0976C8.72016 6.54822 7.00766 9.33135 7.00766 13.6063C7.00766 18.3163 6.17703 19.3201 4.80078 20.9813C4.70078 21.102 4.59891 21.2245 4.49516 21.352C4.22716 21.6752 4.05736 22.0684 4.00586 22.4851C3.95435 22.9018 4.0233 23.3245 4.20453 23.7032C4.59016 24.5157 5.41203 25.0201 6.35016 25.0201H25.6558C26.5895 25.0201 27.4058 24.5163 27.7927 23.7076C27.9747 23.3288 28.0443 22.9057 27.9932 22.4885C27.9421 22.0714 27.7725 21.6776 27.5045 21.3538V21.3538Z" fill="#5A5A5A"/>
<path d="M16.0002 30.022C16.9034 30.0212 17.7895 29.7761 18.5646 29.3125C19.3397 28.8489 19.9748 28.1842 20.4027 27.3888C20.4229 27.3507 20.4328 27.3081 20.4316 27.2649C20.4304 27.2218 20.4181 27.1798 20.3958 27.1429C20.3735 27.1059 20.3421 27.0754 20.3045 27.0542C20.267 27.033 20.2246 27.0219 20.1815 27.022H11.8202C11.777 27.0218 11.7346 27.0329 11.6969 27.054C11.6593 27.0751 11.6278 27.1057 11.6054 27.1426C11.5831 27.1795 11.5707 27.2216 11.5694 27.2648C11.5682 27.3079 11.5782 27.3507 11.5983 27.3888C12.0262 28.1841 12.6612 28.8488 13.4362 29.3123C14.2112 29.7759 15.0972 30.0211 16.0002 30.022Z" fill="#5A5A5A"/>
</svg>
