<svg width="24" height="24" viewBox="0 0 24 24" fill="none" xmlns="http://www.w3.org/2000/svg">
<path d="M2.4 19.1226H4.8V24L10.9212 19.1226H16.8C18.1236 19.1226 19.2 18.0505 19.2 16.7322V7.17096C19.2 5.8527 18.1236 4.78064 16.8 4.78064H2.4C1.0764 4.78064 0 5.8527 0 7.17096V16.7322C0 18.0505 1.0764 19.1226 2.4 19.1226Z" fill="#AEAEAE"/>
<path d="M21.6 0H7.2C5.8764 0 4.8 1.07206 4.8 2.39032H19.2C20.5236 2.39032 21.6 3.46238 21.6 4.78064V14.3419C22.9236 14.3419 24 13.2699 24 11.9516V2.39032C24 1.07206 22.9236 0 21.6 0Z" fill="#AEAEAE"/>
</svg>
