<svg width="16" height="20" viewBox="0 0 16 20" fill="none" xmlns="http://www.w3.org/2000/svg">
<path d="M12.0714 5.00001C12.0714 7.31124 10.2392 9.16668 8 9.16668C5.76081 9.16668 3.92857 7.31124 3.92857 5.00001C3.92857 2.68878 5.76081 0.833344 8 0.833344C10.2392 0.833344 12.0714 2.68878 12.0714 5.00001ZM8 11.9167C8.96509 11.9167 9.88329 11.7056 10.7128 11.3333H11.2C13.5642 11.3333 15.5 13.2945 15.5 15.7333V17.25C15.5 17.9498 14.9463 18.5 14.2857 18.5H1.71429C1.05367 18.5 0.5 17.9498 0.5 17.25V15.7333C0.5 13.2945 2.43581 11.3333 4.8 11.3333H5.28763C6.11936 11.7053 7.03423 11.9167 8 11.9167Z" stroke="#AEAEAE"/>
</svg>
